<svg width="124" height="41" viewBox="0 0 124 41" fill="none" xmlns="http://www.w3.org/2000/svg">
<path d="M12.4206 25.7318H11.0092V17.5416C11.0092 16.9086 11.0495 16.1172 11.1301 15.1676H11.0898C10.9688 15.7216 10.8478 16.1172 10.7269 16.3546L6.57323 25.7318H5.88768L1.69372 16.3942C1.61306 16.1568 1.49208 15.7611 1.33078 15.1676C1.3711 15.6424 1.41143 16.4338 1.41143 17.5416V25.7318H0V13.5059H1.89535L5.60539 22.0126C5.88768 22.6457 6.08931 23.16 6.16996 23.4766H6.21029C6.49258 22.6852 6.69421 22.2104 6.81519 21.973L10.6059 13.5059H12.3803V25.7318" fill="white"/>
<path d="M16.6136 13.9003C16.6136 14.1772 16.533 14.3751 16.3315 14.5333C16.1703 14.6916 15.9285 14.8103 15.6867 14.8103C15.4449 14.8103 15.2031 14.7312 15.0419 14.5729C14.8807 14.4146 14.7598 14.1772 14.7598 13.9003C14.7598 13.6629 14.8404 13.4255 15.0016 13.2672C15.1628 13.0694 15.4046 12.9902 15.6464 12.9902C15.8882 12.9902 16.13 13.0694 16.2912 13.2672C16.533 13.4255 16.6136 13.6233 16.6136 13.9003ZM16.3718 25.7306H15.0016V17.026H16.3718V25.7306Z" fill="white"/>
<path d="M24.597 25.3353C23.9115 25.731 23.1453 25.9288 22.2177 25.9288C21.4112 25.9288 20.7257 25.731 20.0804 25.3749C19.4352 25.0188 18.9513 24.5044 18.6287 23.8318C18.2657 23.1592 18.1044 22.4074 18.1044 21.5765C18.1044 20.1521 18.5077 18.9652 19.3546 18.0947C20.1611 17.2242 21.2902 16.789 22.621 16.789C23.3872 16.789 24.0324 16.9473 24.6373 17.2242V18.6486C23.9921 18.2134 23.3066 17.976 22.5807 17.976C21.6935 17.976 20.9676 18.2925 20.403 18.9256C19.8385 19.5586 19.5562 20.3895 19.5562 21.4183C19.5562 22.447 19.8385 23.2383 20.3627 23.8318C20.887 24.4253 21.6128 24.7023 22.5 24.7023C23.2662 24.7023 23.9518 24.4649 24.6373 23.9505V25.3353" fill="white"/>
<path d="M30.8063 18.4108C30.5644 18.213 30.2014 18.1338 29.7578 18.1338C29.1529 18.1338 28.6287 18.4108 28.2657 19.0043C27.8625 19.5978 27.7012 20.3495 27.7012 21.2596V25.691H26.3301V16.9864H27.7012V18.7669H27.7415C27.9431 18.1734 28.2254 17.6986 28.6287 17.3425C29.032 16.9864 29.4755 16.8281 29.9998 16.8281C30.3627 16.8281 30.645 16.8677 30.8466 16.9468V18.4108" fill="white"/>
<path d="M39.5197 21.3392C39.5197 22.724 39.1164 23.8319 38.3502 24.6628C37.584 25.4936 36.5355 25.9289 35.2047 25.9289C33.9143 25.9289 32.9061 25.5332 32.1399 24.7023C31.3737 23.8714 31.0107 22.8031 31.0107 21.4579C31.0107 20.0335 31.414 18.8861 32.1802 18.0552C32.9464 17.2243 34.0352 16.7891 35.4467 16.7891C36.7371 16.7891 37.7453 17.1847 38.4712 18.0156C39.1567 18.8069 39.5197 19.9148 39.5197 21.3392ZM38.1082 21.3788C38.1082 20.2709 37.8663 19.44 37.3824 18.8465C36.8984 18.253 36.2129 17.9761 35.3257 17.9761C34.4385 17.9761 33.7126 18.2926 33.1884 18.8861C32.6641 19.4796 32.4222 20.3105 32.4222 21.4183C32.4222 22.447 32.6641 23.2779 33.1884 23.8714C33.7126 24.4649 34.3982 24.7419 35.2854 24.7419C36.1726 24.7419 36.8984 24.4649 37.3824 23.8714C37.8663 23.2779 38.1082 22.447 38.1082 21.3788Z" fill="white"/>
<path d="M45.9716 23.3966C45.9716 24.1483 45.6894 24.7814 45.0845 25.2166C44.5199 25.6914 43.7537 25.9288 42.7858 25.9288C41.9793 25.9288 41.2534 25.7705 40.6485 25.4145V23.9109C41.3341 24.4649 42.1003 24.7418 42.9068 24.7418C43.9956 24.7418 44.5602 24.3462 44.5602 23.5153C44.5602 23.1987 44.4392 22.9218 44.2376 22.7239C44.036 22.5261 43.552 22.2491 42.7858 21.8931C42.0196 21.5765 41.4551 21.2204 41.1728 20.8248C40.8502 20.4291 40.6889 19.9543 40.6889 19.3212C40.6889 18.6091 40.9711 18.0156 41.5357 17.5012C42.1003 17.0264 42.8262 16.789 43.7133 16.789C44.3989 16.789 45.0038 16.9077 45.5684 17.1847V18.5695C45.0038 18.1738 44.3586 17.9364 43.5924 17.9364C43.1488 17.9364 42.7858 18.0551 42.5036 18.2925C42.2213 18.5299 42.1003 18.8069 42.1003 19.163C42.1003 19.5586 42.2213 19.8356 42.4229 20.0334C42.6245 20.2313 43.0681 20.4687 43.7537 20.7852C44.5602 21.1413 45.1651 21.4974 45.4877 21.8931C45.8103 22.3283 45.9716 22.8031 45.9716 23.3966Z" fill="white"/>
<path d="M55.4875 21.3391C55.4875 22.7239 55.0843 23.8318 54.3181 24.6627C53.5519 25.4936 52.5034 25.9288 51.1726 25.9288C49.8821 25.9288 48.8739 25.5332 48.1077 24.7023C47.3415 23.8714 46.9786 22.8031 46.9786 21.4578C46.9786 20.0334 47.3818 18.886 48.1481 18.0551C48.9143 17.2242 50.0031 16.789 51.4145 16.789C52.705 16.789 53.7132 17.1847 54.439 18.0156C55.1246 18.8069 55.4875 19.9147 55.4875 21.3391ZM54.0358 21.3787C54.0358 20.2708 53.7938 19.4399 53.3099 18.8465C52.826 18.253 52.1404 17.976 51.2532 17.976C50.366 17.976 49.6402 18.2925 49.1159 18.886C48.5917 19.4795 48.3497 20.3104 48.3497 21.4183C48.3497 22.447 48.5917 23.2779 49.1159 23.8714C49.6402 24.4649 50.3257 24.7418 51.2129 24.7418C52.1001 24.7418 52.826 24.4649 53.3099 23.8714C53.7938 23.2779 54.0358 22.447 54.0358 21.3787Z" fill="white"/>
<path d="M61.1765 14.0592C60.8942 13.9009 60.6119 13.8218 60.249 13.8218C59.2811 13.8218 58.7972 14.4548 58.7972 15.6814V17.0266H60.8135V18.2136H58.7972V25.7312H57.4261V18.2136H55.934V17.0266H57.4261V15.6022C57.4261 14.7318 57.6681 14.0196 58.1923 13.4657C58.7165 12.9117 59.3618 12.6348 60.1683 12.6348C60.6119 12.6348 60.9345 12.6743 61.1765 12.793V14.0592Z" fill="white"/>
<path d="M66.2146 25.6524C65.892 25.8502 65.4484 25.9293 64.9242 25.9293C63.3918 25.9293 62.6659 25.0589 62.6659 23.3575V18.2139H61.1738V17.0269H62.6659V14.8903L64.037 14.4551V17.0269H66.2146V18.2139H64.037V23.1201C64.037 23.7136 64.1177 24.1093 64.3193 24.3862C64.5209 24.6236 64.8435 24.7423 65.3274 24.7423C65.6904 24.7423 65.9727 24.6632 66.2146 24.4654V25.6524Z" fill="white"/>
<path d="M78.8805 17.146C78.8805 18.333 78.4773 19.2826 77.6708 19.9948C76.8642 20.707 75.8157 21.0631 74.4849 21.0631H72.8719V25.6923H71.4604V13.5059H74.8076C76.098 13.5059 77.1062 13.8224 77.8321 14.4555C78.5176 15.1281 78.8805 15.9985 78.8805 17.146ZM77.3885 17.2251C77.3885 15.6029 76.4206 14.8116 74.5253 14.8116H72.8719V19.7969H74.364C75.3318 19.7969 76.098 19.5595 76.6223 19.1243C77.1062 18.6891 77.3885 18.056 77.3885 17.2251Z" fill="white"/>
<path d="M86.1372 25.7305H84.7661V24.3853H84.6854C84.0805 25.4536 83.1933 25.9679 82.0238 25.9679C81.177 25.9679 80.5317 25.7305 80.0075 25.2953C79.5236 24.8205 79.2413 24.227 79.2413 23.4357C79.2413 21.8135 80.2091 20.8639 82.1045 20.5869L84.7257 20.2308C84.7257 18.7669 84.1208 18.0151 82.9513 18.0151C81.9028 18.0151 80.9753 18.3712 80.1285 19.0834V17.659C80.3704 17.4612 80.814 17.2634 81.4189 17.1051C82.0238 16.9073 82.5884 16.8281 83.0723 16.8281C85.129 16.8281 86.1372 17.8964 86.1372 20.0726V25.7305ZM84.7257 21.2991L82.6287 21.6156C81.9028 21.7343 81.4189 21.8926 81.1366 22.13C80.8543 22.3674 80.693 22.7631 80.693 23.317C80.693 23.7522 80.8543 24.1083 81.177 24.3853C81.4996 24.6622 81.9028 24.7809 82.3868 24.7809C83.0723 24.7809 83.6369 24.5436 84.0805 24.0688C84.5241 23.594 84.7661 22.9609 84.7661 22.2487V21.2991" fill="white"/>
<path d="M92.8306 18.4108C92.5886 18.213 92.2257 18.1338 91.7821 18.1338C91.1772 18.1338 90.6529 18.4108 90.29 19.0043C89.8867 19.5978 89.7254 20.3495 89.7254 21.2596V25.691H88.314V16.9864H89.6851V18.7669H89.7254C89.927 18.1734 90.2093 17.6986 90.6126 17.3425C91.0159 16.9864 91.4595 16.8281 91.9837 16.8281C92.3466 16.8281 92.6289 16.8677 92.8306 16.9468V18.4108Z" fill="white"/>
<path d="M99.325 25.6524C99.0024 25.8502 98.5588 25.9293 98.0346 25.9293C96.5021 25.9293 95.7763 25.0589 95.7763 23.3575V18.2139H94.2842V17.0269H95.7763V14.8903L97.1474 14.4551V17.0269H99.325V18.2139H97.1474V23.1201C97.1474 23.7136 97.228 24.1093 97.4297 24.3862C97.6313 24.6632 97.9539 24.7423 98.4378 24.7423C98.8008 24.7423 99.0831 24.6632 99.325 24.4654V25.6524Z" fill="white"/>
<path d="M108.478 25.7305H107.107V20.7452C107.107 18.8856 106.422 17.9755 105.091 17.9755C104.405 17.9755 103.841 18.2525 103.357 18.7669C102.913 19.2812 102.671 19.9539 102.671 20.7452V25.7305H101.3V17.026H102.671V18.4899H102.712C103.357 17.3821 104.325 16.8281 105.575 16.8281C106.543 16.8281 107.269 17.1447 107.753 17.7777C108.237 18.4108 108.519 19.2812 108.519 20.4287V25.7305" fill="white"/>
<path d="M117.554 21.6952H111.424C111.464 22.6844 111.706 23.4361 112.19 23.9505C112.674 24.4649 113.36 24.7418 114.247 24.7418C115.215 24.7418 116.142 24.4253 116.949 23.7922V25.0979C116.183 25.6518 115.174 25.9288 113.924 25.9288C112.674 25.9288 111.706 25.5332 111.021 24.7418C110.335 23.9505 109.972 22.8426 109.972 21.4183C109.972 20.5478 110.134 19.7565 110.496 19.0443C110.859 18.3321 111.303 17.7782 111.948 17.3825C112.593 16.9868 113.239 16.789 113.965 16.789C115.094 16.789 115.981 17.1451 116.586 17.8969C117.231 18.6486 117.513 19.6773 117.513 20.983V21.6952H117.554ZM116.142 20.5082C116.142 19.7169 115.941 19.0838 115.578 18.6486C115.215 18.2134 114.69 17.976 114.005 17.976C113.36 17.976 112.795 18.2134 112.351 18.6882C111.908 19.163 111.626 19.7565 111.505 20.5478H116.142" fill="white"/>
<path d="M123.682 18.4108C123.44 18.2129 123.077 18.1338 122.633 18.1338C122.028 18.1338 121.504 18.4108 121.141 19.0043C120.738 19.5978 120.577 20.3495 120.577 21.2595V25.6909H119.206V16.9864H120.577V18.7669H120.617C120.819 18.1734 121.101 17.6986 121.504 17.3425C121.907 16.9864 122.351 16.8281 122.875 16.8281C123.238 16.8281 123.521 16.8677 123.722 16.9468V18.4108" fill="white"/>
<path d="M94.6941 36.4275L94.4103 37.1887C94.3697 37.0285 94.2886 36.748 94.167 36.4275L92.7075 32.7812H91.2886V38.5911H92.221V35.0251C92.221 34.8247 92.221 34.5443 92.221 34.2237C92.221 34.0634 92.1805 33.9432 92.1805 33.8631H92.221C92.2616 34.0634 92.3021 34.2638 92.3427 34.3439L94.0859 38.5911H94.7346L96.4373 34.3038C96.4779 34.2237 96.5184 34.0234 96.559 33.8631C96.5184 34.3038 96.5184 34.6645 96.5184 34.9049V38.5911H97.4914V32.7812H96.1535L94.6941 36.4275Z" fill="white"/>
<path d="M98.4238 38.5508H99.3961V34.4238H98.4238V38.5508Z" fill="white"/>
<path d="M98.9499 32.6602C98.7879 32.6602 98.6663 32.7002 98.5448 32.8204C98.4233 32.9406 98.3828 33.0608 98.3828 33.2211C98.3828 33.3814 98.4233 33.5016 98.5448 33.6218C98.6663 33.742 98.7879 33.7821 98.9499 33.7821C99.112 33.7821 99.2335 33.742 99.3551 33.6218C99.4766 33.5016 99.5171 33.3814 99.5171 33.2211C99.5171 33.0608 99.4766 32.9406 99.3551 32.8204C99.2335 32.7002 99.112 32.6602 98.9499 32.6602Z" fill="white"/>
<path d="M102.843 34.3838C102.641 34.3437 102.478 34.3438 102.316 34.3438C101.87 34.3438 101.465 34.4239 101.141 34.6242C100.816 34.8246 100.532 35.105 100.37 35.4256C100.208 35.7862 100.086 36.1869 100.086 36.6276C100.086 37.0283 100.168 37.3889 100.33 37.7095C100.492 38.03 100.735 38.2704 101.059 38.4307C101.384 38.591 101.708 38.6711 102.114 38.6711C102.559 38.6711 102.965 38.591 103.289 38.3906V37.5091L103.249 37.5492C103.087 37.6694 102.965 37.7495 102.762 37.7896C102.6 37.8697 102.438 37.8697 102.316 37.8697C101.951 37.8697 101.627 37.7495 101.424 37.5091C101.222 37.2687 101.1 36.9482 101.1 36.5074C101.1 36.0667 101.222 35.7461 101.465 35.5057C101.708 35.2653 101.992 35.1451 102.357 35.1451C102.681 35.1451 102.965 35.2653 103.289 35.4657L103.33 35.5057V34.5441C103.168 34.464 103.005 34.4239 102.843 34.3838Z" fill="white"/>
<path d="M106.046 34.3437C105.802 34.3437 105.6 34.4238 105.397 34.5841C105.235 34.7043 105.113 34.9047 105.032 35.1451V34.4239H104.059V38.5909H105.032V36.4673C105.032 36.1067 105.113 35.8262 105.275 35.5858C105.437 35.3454 105.64 35.2653 105.883 35.2653C105.964 35.2653 106.086 35.2653 106.167 35.3053C106.289 35.3454 106.329 35.3454 106.41 35.3855L106.451 35.4255V34.4239C106.329 34.3437 106.167 34.3437 106.046 34.3437Z" fill="white"/>
<path d="M108.64 34.3047C107.951 34.3047 107.424 34.505 107.019 34.9057C106.654 35.3064 106.451 35.8673 106.451 36.5485C106.451 37.1896 106.654 37.7104 107.019 38.1111C107.384 38.5118 107.911 38.6721 108.519 38.6721C109.167 38.6721 109.695 38.4717 110.1 38.0711C110.465 37.6704 110.668 37.1094 110.668 36.4683C110.668 35.7872 110.465 35.2663 110.141 34.9057C109.816 34.505 109.289 34.3047 108.64 34.3047ZM109.411 37.5101C109.249 37.7505 108.965 37.8707 108.6 37.8707C108.235 37.8707 107.951 37.7505 107.749 37.5101C107.546 37.2697 107.465 36.9492 107.465 36.5084C107.465 36.0677 107.546 35.7071 107.749 35.4667C107.951 35.2262 108.235 35.106 108.559 35.106C108.884 35.106 109.168 35.2262 109.37 35.4667C109.573 35.7071 109.654 36.0276 109.654 36.4683C109.695 36.9492 109.613 37.2697 109.411 37.5101Z" fill="white"/>
<path d="M112.858 36.1468C112.534 36.0266 112.372 35.9064 112.291 35.8263C112.21 35.7461 112.169 35.6259 112.169 35.5057C112.169 35.3855 112.21 35.3054 112.331 35.2252C112.412 35.1451 112.575 35.105 112.737 35.105C112.899 35.105 113.061 35.1451 113.223 35.1852C113.385 35.2252 113.548 35.3054 113.669 35.3855L113.71 35.4256V34.504C113.588 34.464 113.467 34.4239 113.264 34.3838C113.102 34.3437 112.94 34.3438 112.777 34.3438C112.331 34.3438 111.926 34.464 111.642 34.7044C111.358 34.9448 111.196 35.2653 111.196 35.6259C111.196 35.8263 111.237 35.9865 111.277 36.1468C111.358 36.3071 111.44 36.4273 111.561 36.5475C111.683 36.6677 111.885 36.7879 112.169 36.868C112.413 36.9482 112.575 37.0283 112.656 37.1084C112.777 37.1886 112.818 37.2286 112.858 37.3088C112.899 37.3489 112.94 37.429 112.94 37.5492C112.94 37.8297 112.737 37.9499 112.291 37.9499C112.129 37.9499 111.967 37.9098 111.764 37.8697C111.561 37.7896 111.399 37.7095 111.196 37.5893L111.156 37.5492V38.5108C111.277 38.591 111.48 38.631 111.683 38.6711C111.885 38.7112 112.088 38.7512 112.25 38.7512C112.737 38.7512 113.142 38.631 113.467 38.3906C113.75 38.1502 113.912 37.8297 113.912 37.429C113.912 37.1485 113.831 36.9081 113.669 36.7078C113.507 36.4674 113.223 36.267 112.858 36.1468Z" fill="white"/>
<path d="M116.506 34.3047C115.816 34.3047 115.289 34.505 114.884 34.9057C114.519 35.3064 114.316 35.8673 114.316 36.5485C114.316 37.1896 114.519 37.7104 114.884 38.1111C115.249 38.5118 115.776 38.6721 116.384 38.6721C117.033 38.6721 117.56 38.4717 117.965 38.0711C118.33 37.6704 118.533 37.1094 118.533 36.4683C118.533 35.7872 118.33 35.2663 118.006 34.9057C117.641 34.505 117.154 34.3047 116.506 34.3047ZM117.276 37.5101C117.114 37.7505 116.83 37.8707 116.465 37.8707C116.1 37.8707 115.816 37.7505 115.614 37.5101C115.411 37.2697 115.33 36.9492 115.33 36.5084C115.33 36.0677 115.411 35.7071 115.614 35.4667C115.816 35.2262 116.1 35.106 116.425 35.106C116.749 35.106 117.033 35.2262 117.235 35.4667C117.438 35.7071 117.519 36.0276 117.519 36.4683C117.56 36.9492 117.479 37.2697 117.276 37.5101Z" fill="white"/>
<path d="M123.721 35.2248V34.4235H122.748V33.1814H122.708L121.775 33.4618V34.3834H120.316V33.8625C120.316 33.6221 120.356 33.4218 120.478 33.3016C120.599 33.1814 120.721 33.1012 120.924 33.1012C121.045 33.1012 121.208 33.1413 121.37 33.1814H121.41V32.3399C121.289 32.2999 121.086 32.2598 120.883 32.2598C120.599 32.2598 120.356 32.3399 120.113 32.4601C119.87 32.5803 119.707 32.7807 119.586 32.981C119.464 33.2214 119.383 33.4618 119.383 33.7423V34.3033H118.694V35.1046H119.383V38.4703H120.356V35.1046H121.816V37.2282C121.816 38.1097 122.221 38.5505 123.032 38.5505C123.154 38.5505 123.316 38.5505 123.437 38.5104C123.599 38.4703 123.681 38.4303 123.721 38.4303V37.6289L123.681 37.669C123.64 37.709 123.559 37.7491 123.478 37.7491C123.397 37.7892 123.316 37.7892 123.275 37.7892C123.072 37.7892 122.951 37.7491 122.87 37.6289C122.789 37.5087 122.748 37.3484 122.748 37.108V35.1447H123.721" fill="white"/>
<path d="M83.3834 35.4242H78.8428V30.8164H83.3834V35.4242Z" fill="white"/>
<path d="M88.4107 35.4242H83.8701V30.8164H88.4107V35.4242Z" fill="white"/>
<path d="M83.3834 40.5141H78.8428V35.9062H83.3834V40.5141Z" fill="white"/>
<path d="M88.4107 40.5141H83.8701V35.9062H88.4107V40.5141Z" fill="white"/>
<path d="M5.09762 7.174C4.47596 7.56831 3.77141 7.74356 3.02542 7.74356C2.4452 7.74356 1.90643 7.61213 1.45054 7.30544C0.994657 6.99875 0.621661 6.60443 0.414441 6.07868C0.124332 5.59674 0 5.02718 0 4.36999C0 3.31848 0.290108 2.48604 0.911769 1.78504C1.53343 1.08403 2.27942 0.777344 3.23264 0.777344C3.89574 0.777344 4.47596 0.908782 4.93184 1.12785V2.0041C4.43451 1.6536 3.81285 1.47835 3.14975 1.47835C2.69386 1.47835 2.27942 1.60979 1.90643 1.82885C1.57487 2.09172 1.28477 2.44223 1.07755 2.88035C0.870325 3.31848 0.787437 3.80042 0.787437 4.32617C0.787437 5.15861 0.994657 5.85962 1.4091 6.34156C1.82354 6.8235 2.40376 7.08637 3.1083 7.08637C3.60563 7.08637 4.02007 6.99875 4.39307 6.77968V4.85192H2.98397V4.15092H5.09762V7.174Z" fill="white"/>
<path d="M10.6947 5.24621C10.6947 5.99103 10.4875 6.64822 10.0731 7.08634C9.65865 7.56828 9.11988 7.78735 8.45678 7.78735C7.79368 7.78735 7.25491 7.56828 6.88191 7.08634C6.50892 6.64822 6.3017 6.03484 6.3017 5.29002C6.3017 4.5014 6.50892 3.84421 6.92336 3.40608C7.33779 2.96795 7.87656 2.70508 8.58111 2.70508C9.24421 2.70508 9.74154 2.92414 10.156 3.36227C10.5704 3.80039 10.6947 4.45758 10.6947 5.24621ZM9.9902 5.24621C9.9902 4.63283 9.86587 4.19471 9.61721 3.84421C9.36854 3.53752 8.99555 3.36227 8.53967 3.36227C8.08378 3.36227 7.71079 3.53752 7.46213 3.84421C7.21346 4.19471 7.04769 4.63283 7.04769 5.24621C7.04769 5.81578 7.17202 6.2539 7.46213 6.6044C7.71079 6.91109 8.08378 7.08634 8.53967 7.08634C8.99555 7.08634 9.36854 6.91109 9.61721 6.6044C9.86587 6.29772 9.9902 5.85959 9.9902 5.24621Z" fill="white"/>
<path d="M12.7616 7.65516H12.0161V0.513672H12.7616V7.65516Z" fill="white"/>
<path d="M18.1944 7.65512H17.4898V6.82269C17.1582 7.43606 16.6609 7.74275 15.9564 7.74275C15.3761 7.74275 14.9617 7.52369 14.6301 7.08556C14.2986 6.64743 14.1328 6.07787 14.1328 5.33306C14.1328 4.54443 14.2986 3.88724 14.6716 3.4053C15.0031 2.96718 15.5005 2.7043 16.1221 2.7043C16.7438 2.7043 17.1582 2.96718 17.4484 3.49293V0.513672H18.1529V7.65512H18.1944ZM17.4898 5.4645V4.76349C17.4898 4.36918 17.3655 4.01868 17.1168 3.7558C16.8681 3.49293 16.578 3.36149 16.205 3.36149C15.7906 3.36149 15.4176 3.53674 15.1689 3.88724C14.9203 4.23774 14.7959 4.71968 14.7959 5.33306C14.7959 5.90262 14.9203 6.34075 15.1689 6.64744C15.4176 6.95412 15.7077 7.12937 16.1221 7.12937C16.4951 7.12937 16.8267 6.95412 17.0754 6.64744C17.3655 6.34075 17.4898 5.94643 17.4898 5.4645Z" fill="white"/>
</svg>
